<mxfile host="app.diagrams.net" modified="2023-09-06T06:48:46.755Z" agent="Mozilla/5.0 (Macintosh; Intel Mac OS X 10_15_6) AppleWebKit/537.36 (KHTML, like Gecko) Chrome/78.0.3904.108 Safari/537.36" version="21.6.6" etag="7gc64xLK25ZXDECrv0AF" type="github">
  <diagram name="第 1 页" id="9Q_IRBiCluMgm1t3k4MT">
    <mxGraphModel>
      <root>
        <mxCell id="0" />
        <mxCell id="1" parent="0" />
      </root>
    </mxGraphModel>
  </diagram>
</mxfile>
